# Blender v2.79 (sub 0) OBJ File: 'saber.blend'
# www.blender.org
mtllib saber_blue.mtl
o Cylinder
v -0.950000 0.000000 0.000000
v -0.950000 -0.000000 -1.000000
v -0.822724 -0.475000 0.000000
v -0.822724 -0.475000 -1.000000
v -0.475000 -0.822724 0.000000
v -0.475000 -0.822724 -1.000000
v 0.000000 -0.950000 0.000000
v 0.000000 -0.950000 -1.000000
v 0.475000 -0.822724 -0.000000
v 0.475000 -0.822724 -1.000000
v 0.822724 -0.475000 -0.000000
v 0.822724 -0.475000 -1.000000
v 0.950000 0.000000 -0.000000
v 0.950000 -0.000000 -1.000000
v 0.822724 0.475000 -0.000000
v 0.822724 0.475000 -1.000000
v 0.475000 0.822724 -0.000000
v 0.475000 0.822724 -1.000000
v 0.000000 0.950000 0.000000
v 0.000000 0.950000 -1.000000
v -0.475000 0.822725 0.000000
v -0.475000 0.822724 -1.000000
v -0.822724 0.475001 0.000000
v -0.822724 0.475000 -1.000000
vt 0.750019 0.178104
vt 0.833352 0.821572
vt 0.750019 0.821572
vt 0.833352 0.178104
vt 0.916685 0.821572
vt 0.916685 0.178104
vt 1.000018 0.821572
vt 0.000018 0.178105
vt 0.083354 0.821572
vt 0.000021 0.821572
vt 0.083351 0.178104
vt 0.166688 0.821572
vt 0.166685 0.178104
vt 0.250020 0.821572
vt 0.250018 0.178104
vt 0.333354 0.821572
vt 0.333352 0.178104
vt 0.416687 0.821572
vt 0.416685 0.178104
vt 0.500020 0.821572
vt 0.500018 0.178104
vt 0.583353 0.821572
vt 0.604205 0.934292
vt 0.450272 0.975538
vt 0.491518 0.821605
vt 0.583352 0.178104
vt 0.666686 0.821572
vt 0.666685 0.178104
vt 0.437743 0.154138
vt 0.413929 0.065264
vt 0.567862 0.024018
vt 1.000019 0.178104
vt 0.539145 0.821605
vt 0.580391 0.845418
vt 0.604205 0.886665
vt 0.580391 0.975538
vt 0.539145 0.999351
vt 0.491518 0.999351
vt 0.426458 0.934292
vt 0.426458 0.886665
vt 0.450272 0.845418
vt 0.437743 0.024018
vt 0.478989 0.000204
vt 0.526616 0.000204
vt 0.591676 0.065264
vt 0.591676 0.112891
vt 0.567862 0.154138
vt 0.526616 0.177951
vt 0.478989 0.177951
vt 0.413929 0.112891
vn -0.9659 -0.2588 0.0000
vn -0.7071 -0.7071 0.0000
vn -0.2588 -0.9659 0.0000
vn 0.2588 -0.9659 0.0000
vn 0.7071 -0.7071 0.0000
vn 0.9659 -0.2588 0.0000
vn 0.9659 0.2588 -0.0000
vn 0.7071 0.7071 -0.0000
vn 0.2588 0.9659 -0.0000
vn -0.2588 0.9659 -0.0000
vn 0.0000 0.0000 -1.0000
vn -0.7071 0.7071 -0.0000
vn -0.9659 0.2588 -0.0000
vn 0.0000 -0.0000 1.0000
usemtl Material.001
s off
f 2/1/1 3/2/1 1/3/1
f 4/4/2 5/5/2 3/2/2
f 6/6/3 7/7/3 5/5/3
f 8/8/4 9/9/4 7/10/4
f 10/11/5 11/12/5 9/9/5
f 12/13/6 13/14/6 11/12/6
f 14/15/7 15/16/7 13/14/7
f 16/17/8 17/18/8 15/16/8
f 18/19/9 19/20/9 17/18/9
f 20/21/10 21/22/10 19/20/10
f 22/23/11 14/24/11 6/25/11
f 22/26/12 23/27/12 21/22/12
f 24/28/13 1/3/13 23/27/13
f 19/29/14 23/30/14 7/31/14
f 2/1/1 4/4/1 3/2/1
f 4/4/2 6/6/2 5/5/2
f 6/6/3 8/32/3 7/7/3
f 8/8/4 10/11/4 9/9/4
f 10/11/5 12/13/5 11/12/5
f 12/13/6 14/15/6 13/14/6
f 14/15/7 16/17/7 15/16/7
f 16/17/8 18/19/8 17/18/8
f 18/19/9 20/21/9 19/20/9
f 20/21/10 22/26/10 21/22/10
f 6/25/11 4/33/11 2/34/11
f 2/34/11 24/35/11 22/23/11
f 22/23/11 20/36/11 18/37/11
f 18/37/11 16/38/11 14/24/11
f 14/24/11 12/39/11 10/40/11
f 10/40/11 8/41/11 6/25/11
f 6/25/11 2/34/11 22/23/11
f 22/23/11 18/37/11 14/24/11
f 14/24/11 10/40/11 6/25/11
f 22/26/12 24/28/12 23/27/12
f 24/28/13 2/1/13 1/3/13
f 23/30/14 1/42/14 3/43/14
f 3/43/14 5/44/14 7/31/14
f 7/31/14 9/45/14 11/46/14
f 11/46/14 13/47/14 15/48/14
f 15/48/14 17/49/14 19/29/14
f 19/29/14 21/50/14 23/30/14
f 23/30/14 3/43/14 7/31/14
f 7/31/14 11/46/14 15/48/14
f 15/48/14 19/29/14 7/31/14
