# Blender v2.79 (sub 0) OBJ File: 'xyz.blend'
# www.blender.org
mtllib xyz.mtl
o Cube.002_Cube.010
v -0.500000 0.500000 0.500000
v -0.500000 6.000000 0.500000
v -0.500000 0.500000 -0.500000
v -0.500000 6.000000 -0.500000
v 0.500000 0.500000 0.500000
v 0.500000 6.000000 0.500000
v 0.500000 0.500000 -0.500000
v 0.500000 6.000000 -0.500000
v 0.500000 -0.500000 0.500000
v 0.500000 -0.500000 -0.500000
v 6.000000 -0.500000 0.500000
v 6.000000 0.500000 0.500000
v 6.000000 -0.500000 -0.500000
v 6.000000 0.500000 -0.500000
v -0.500000 -0.500000 -0.500000
v -0.500000 -0.500000 -6.000000
v -0.500000 0.500000 -6.000000
v 0.500000 -0.500000 -6.000000
v 0.500000 0.500000 -6.000000
vt 0.735950 0.217008
vt 0.735950 0.322810
vt 0.630776 0.322810
vt 0.630776 0.217008
vt 0.525602 0.322810
vt 0.525602 0.217008
vt 0.946298 0.217008
vt 0.946299 0.322810
vt 0.841125 0.322810
vt 0.841124 0.217008
vt 0.945985 0.446113
vt 0.840811 0.446113
vt 0.840811 0.340938
vt 0.945985 0.340938
vt 0.944473 0.202285
vt 0.839299 0.202285
vt 0.839299 0.097111
vt 0.944473 0.097111
vt 0.297969 0.639344
vt 0.297969 0.534170
vt 0.403144 0.534170
vt 0.403144 0.639344
vt 0.171331 0.642495
vt 0.171331 0.537320
vt 0.275180 0.537320
vt 0.275180 0.642494
vt 0.151063 0.538076
vt 0.151063 0.643250
vt 0.045889 0.643250
vt 0.045889 0.538076
vt 0.275180 0.747669
vt 0.275180 0.852843
vt 0.171331 0.852843
vt 0.171331 0.747669
vt 0.275180 0.958017
vt 0.171331 0.958017
vt 0.695524 0.775769
vt 0.695524 0.670594
vt 0.803279 0.670594
vt 0.803279 0.775768
vt 0.812211 0.981582
vt 0.812211 0.876408
vt 0.917385 0.876408
vt 0.917385 0.981582
vt 0.803279 0.880943
vt 0.803279 0.986117
vt 0.695524 0.986117
vt 0.695524 0.880943
vt 0.678976 0.878361
vt 0.678976 0.983535
vt 0.573802 0.983535
vt 0.573802 0.878361
vt 0.803279 0.565420
vt 0.695524 0.565420
vn -1.0000 0.0000 0.0000
vn 0.0000 0.0000 -1.0000
vn 1.0000 0.0000 0.0000
vn 0.0000 0.0000 1.0000
vn 0.0000 -1.0000 0.0000
vn 0.0000 1.0000 0.0000
usemtl Material.003
s off
f 1/1/1 2/2/1 4/3/1 3/4/1
f 3/4/2 4/3/2 8/5/2 7/6/2
f 7/7/3 8/8/3 6/9/3 5/10/3
f 5/10/4 6/9/4 2/2/4 1/1/4
f 3/11/5 7/12/5 5/13/5 1/14/5
f 8/15/6 4/16/6 2/17/6 6/18/6
f 9/19/1 5/20/1 7/21/1 10/22/1
f 10/23/2 7/24/2 14/25/2 13/26/2
f 13/27/3 14/28/3 12/29/3 11/30/3
f 11/31/4 12/32/4 5/33/4 9/34/4
f 10/23/5 13/26/5 11/31/5 9/34/5
f 14/35/6 7/36/6 5/33/6 12/32/6
f 15/37/1 3/38/1 17/39/1 16/40/1
f 16/41/2 17/42/2 19/43/2 18/44/2
f 18/45/3 19/46/3 7/47/3 10/48/3
f 10/49/4 7/50/4 3/51/4 15/52/4
f 16/40/5 18/45/5 10/48/5 15/37/5
f 19/53/6 17/39/6 3/38/6 7/54/6
